<?xml version="1.0" standalone="no"?>
<!DOCTYPE svg PUBLIC "-//W3C//DTD SVG 20010904//EN"
 "http://www.w3.org/TR/2001/REC-SVG-20010904/DTD/svg10.dtd">
<svg version="1.0" xmlns="http://www.w3.org/2000/svg"
 width="225.000000pt" height="225.000000pt" viewBox="0 0 225.000000 225.000000"
 preserveAspectRatio="xMidYMid meet">
<metadata>
Created by potrace 1.14, written by Peter Selinger 2001-2017
</metadata>
<g transform="translate(0.000000,225.000000) scale(0.100000,-0.100000)"
fill="#000000" stroke="none">
<path d="M0 1125 l0 -1125 1125 0 1125 0 0 1125 0 1125 -1125 0 -1125 0 0
-1125z m408 168 l-3 -148 -45 0 -45 0 -3 134 c-1 74 0 141 2 148 3 8 23 13 51
13 l46 0 -3 -147z m1522 -4 l0 -150 -47 3 -48 3 -3 134 c-1 74 0 141 2 148 3
8 23 13 51 13 l45 0 0 -151z m-1142 -46 l-3 -98 -45 0 -45 0 -3 98 -3 97 51 0
51 0 -3 -97z m760 0 l-3 -98 -45 0 -45 0 -3 98 -3 97 51 0 51 0 -3 -97z m-378
-54 l0 -50 -47 3 -48 3 -3 48 -3 47 50 0 51 0 0 -51z m-802 -249 c18 -33 35
-60 37 -60 3 0 18 27 35 60 45 89 60 81 60 -30 0 -75 -3 -90 -16 -90 -13 0
-15 11 -12 65 1 36 2 65 1 65 0 0 -15 -25 -32 -55 -18 -31 -36 -53 -42 -50 -5
4 -22 30 -37 58 l-27 52 -3 -67 c-4 -101 -22 -83 -22 22 0 109 11 115 58 30z
m352 50 c0 -5 -18 -10 -40 -10 -38 0 -40 -2 -40 -30 0 -28 3 -30 35 -30 19 0
35 -4 35 -10 0 -5 -16 -10 -35 -10 -32 0 -35 -2 -35 -30 0 -28 2 -30 40 -30
22 0 40 -4 40 -10 0 -5 -25 -10 -55 -10 l-55 0 0 90 0 90 55 0 c30 0 55 -4 55
-10z m222 -7 c24 -21 23 -58 -2 -76 -19 -13 -19 -14 5 -47 29 -40 29 -40 11
-40 -8 0 -24 16 -36 35 -12 19 -28 35 -36 35 -9 0 -14 -11 -14 -35 0 -24 -5
-35 -15 -35 -12 0 -15 17 -15 90 l0 90 42 0 c24 0 49 -7 60 -17z m242 11 c9
-3 16 -12 16 -20 0 -16 -16 -19 -25 -4 -12 20 -54 10 -75 -17 -16 -20 -20 -36
-16 -57 10 -48 25 -59 73 -53 48 5 57 -8 16 -24 -31 -12 -79 2 -99 28 -7 10
-14 37 -14 61 0 70 59 111 124 86z m227 -67 c40 -98 43 -107 26 -107 -8 0 -18
11 -21 25 -5 21 -12 25 -45 25 -31 0 -40 -5 -49 -25 -10 -21 -32 -35 -32 -20
0 6 60 157 67 168 11 18 28 -3 54 -66z m149 -1 c0 -77 5 -86 50 -86 28 0 40
31 40 99 0 34 4 61 10 61 6 0 10 -31 10 -74 0 -69 -2 -76 -27 -96 -32 -25 -69
-20 -95 12 -24 27 -26 158 -3 158 12 0 15 -15 15 -74z m276 39 c10 -19 21 -35
24 -35 3 0 15 16 28 35 12 19 29 35 38 35 11 0 7 -11 -16 -45 l-31 -45 31 -45
c23 -34 27 -45 16 -45 -9 0 -26 16 -38 35 -13 19 -26 35 -29 35 -3 0 -14 -16
-25 -35 -10 -19 -24 -35 -31 -35 -18 0 -17 5 13 50 l27 40 -27 40 c-30 45 -31
50 -13 50 8 0 22 -16 33 -35z"/>
<path d="M870 946 c0 -28 4 -36 18 -36 28 0 44 16 40 41 -2 18 -10 25 -30 27
-26 3 -28 1 -28 -32z"/>
<path d="M1352 927 c-17 -46 -16 -47 19 -47 24 0 30 3 25 16 -3 9 -9 27 -12
40 -8 33 -18 30 -32 -9z"/>
</g>
</svg>
