<svg id="Слой_1" data-name="Слой 1" xmlns="http://www.w3.org/2000/svg" viewBox="0 0 315.22 46.53"><defs><style>.cls-1{fill:#000;}</style></defs><title>FinnFlare</title><path class="cls-1" d="M298.56,39.91l0-13.12h12.94v-6H298.58V6.58l16,0V.47H291.84v45.7l18.31,0c2.76,0,5.07-3,5.07-6.26ZM78.22,35.7h-.11s-1.92-3.42-2.87-4.92c-3.42-5.37-8.79-13.89-14.46-22.89-2.93-4.64-6-7.4-9.89-7.55V46.06h6.55l0-31.52h.17s1.47,2.94,2.68,4.87C63.86,25.08,68.78,33,73.88,41c2.84,4.47,6.43,5.38,10.65,5.43V.69H78.22Zm203.22,4.9a61.87,61.87,0,0,1,2.95,5.66l-6.8,0c-.86-1.62-1.94-3.61-2.95-5.27s-2-3.25-3.07-4.77-2.05-2.93-3.06-4.25c-.56-.73-1.08-1.4-1.57-2a48.7,48.7,0,0,1-6.21.66V46l-6.39,0V30.7H245l-2.38-6.36h11.68V2.23A32.53,32.53,0,0,1,263.83,0a20.47,20.47,0,0,1,12,2.81A13.7,13.7,0,0,1,282.34,14a13.71,13.71,0,0,1-3.65,10.49A16.75,16.75,0,0,1,273,28.28l1.88,2.43c1.05,1.39,2.13,2.92,3.25,4.61S280.34,38.76,281.44,40.6Zm-6.82-20.5a7.41,7.41,0,0,0,1.89-5.8,7.24,7.24,0,0,0-3.59-6.08C269.87,6.29,265,5.85,260.73,7V24.27C267.26,23.94,272.31,22.52,274.62,20.1ZM31.77,41.46c0,2.76,3.38,5.07,6.71,5.07l0-45.84H31.77ZM0,41.46c0,2.76,3.49,5.07,6.72,5.07V26.79H19.67v-6H6.74V6.58l16,0V.7H0S0,37.76,0,41.46ZM225.65,2.14a14.42,14.42,0,0,0-2.5,4.51c-1.11,3.2-4.88,14.65-4.92,14.77l-1.62,5.38a23.07,23.07,0,0,1,7.85-4.47L226.67,15C230.19,24,239,46.3,239,46.3l7-.13L228.19.36A6.35,6.35,0,0,0,225.65,2.14Zm-35.2,37.77V.47h-6.92v45.7l17.85,0c2.76,0,5.08-3,5.08-6.26ZM129.81.69h-6.34v35h-.11s-1.91-3.42-2.87-4.92c-3.41-5.37-8.78-13.89-14.45-22.89-2.93-4.64-5.93-7.4-9.86-7.55l0,45.72h6.55l0-31.52h.16s1.48,2.94,2.69,4.87C109.11,25.08,114,33,119.14,41c2.83,4.47,6.42,5.38,10.64,5.43Zm42.76,20.1H159.63V6.58l16,0V.7H152.93s0,37.06,0,40.75c0,2.77,3.49,5.08,6.71,5.08l0-19.74h12.94Zm38,25.56H217c0-3.37,3.15-13.46,13.23-14.78l-2.36-6C215,28.08,210.61,40.86,210.61,46.35Z"/></svg>