<svg id="Слой_1" data-name="Слой 1" xmlns="http://www.w3.org/2000/svg" viewBox="0 0 340.86 63.48"><defs><style>.cls-1{fill:#000;}</style></defs><title>FrenchConnection</title><polygon class="cls-1" points="67.98 0.27 91.11 0.27 91.11 2.95 71.27 2.95 71.27 10.69 90.34 10.69 90.34 13.37 71.27 13.37 71.27 24.54 67.98 24.54 67.98 0.27 67.98 0.27"/><path class="cls-1" d="M118.12,12.27c3.65,0,5.19-1,5.19-3.52V6.54c0-2.72-1.17-3.59-6-3.59h-15v9.32Zm-19-12h19.41c7,0,8.11,2.31,8.11,6.87v2c0,3.42-1.95,4.35-4.46,4.59v.07c3.35.6,4.15,2.34,4.15,4.56v6.2h-3.08V19.21c0-3.79-1.84-4.26-4.82-4.26h-16v9.59H99.08V.27Z"/><polygon class="cls-1" points="135.54 0.27 159.37 0.27 159.37 2.95 138.82 2.95 138.82 10.69 158.56 10.69 158.56 13.37 138.82 13.37 138.82 21.86 159.5 21.86 159.5 24.54 135.54 24.54 135.54 0.27 135.54 0.27"/><polygon class="cls-1" points="167.47 0.27 172.36 0.27 194.59 21.59 194.59 0.27 197.87 0.27 197.87 24.54 192.98 24.54 170.75 3.22 170.75 24.54 167.47 24.54 167.47 0.27 167.47 0.27"/><path class="cls-1" d="M206.65,9.08C206.65,3,208.73,0,215.29,0h12.57c6,0,7.61,2.78,7.61,6V8.11h-2.88V7c0-4.13-2.55-4.33-5.56-4.33h-11.4c-3.15,0-5.7.94-5.7,5.16V17c0,4.23,2.55,5.16,5.7,5.16h11.5c4.42,0,5.69-.93,5.69-4.22V16.39h3.09V18c0,4.4-1.41,6.78-8.21,6.78H215.29c-6.56,0-8.64-2.95-8.64-9.09V9.08Z"/><polygon class="cls-1" points="244.38 0.27 247.67 0.27 247.67 10.69 269.59 10.69 269.59 0.27 272.87 0.27 272.87 24.54 269.59 24.54 269.59 13.37 247.67 13.37 247.67 24.54 244.38 24.54 244.38 0.27 244.38 0.27"/><path class="cls-1" d="M0,47.76c0-6.13,2.08-9.08,8.65-9.08H21.22c6,0,7.61,2.78,7.61,6v2.08H25.94V45.68c0-4.12-2.54-4.32-5.56-4.32H9c-3.15,0-5.7.94-5.7,5.16v9.12c0,4.22,2.55,5.16,5.7,5.16h11.5c4.42,0,5.7-.94,5.7-4.22V55.07h3.08v1.64c0,4.4-1.41,6.77-8.21,6.77H8.65C2.08,63.48,0,60.54,0,54.4V47.76Z"/><path class="cls-1" d="M65.09,46.52c0-4.22-2.55-5.16-5.7-5.16H46.08c-3.15,0-5.7.94-5.7,5.16v9.12c0,4.22,2.55,5.16,5.7,5.16H59.39c3.15,0,5.7-.94,5.7-5.16V46.52Zm-28,1.24c0-6.13,2.08-9.08,8.65-9.08h14c6.58,0,8.65,3,8.65,9.08V54.4c0,6.14-2.07,9.08-8.65,9.08h-14c-6.57,0-8.65-2.94-8.65-9.08V47.76Z"/><polygon class="cls-1" points="77.15 38.95 82.04 38.95 104.26 60.27 104.26 38.95 107.55 38.95 107.55 63.22 102.66 63.22 80.43 41.9 80.43 63.22 77.15 63.22 77.15 38.95 77.15 38.95"/><polygon class="cls-1" points="116.76 38.95 121.66 38.95 143.88 60.27 143.88 38.95 147.16 38.95 147.16 63.22 142.27 63.22 120.05 41.9 120.05 63.22 116.76 63.22 116.76 38.95 116.76 38.95"/><polygon class="cls-1" points="156.57 38.95 180.41 38.95 180.41 41.63 159.86 41.63 159.86 49.37 179.6 49.37 179.6 52.05 159.86 52.05 159.86 60.54 180.54 60.54 180.54 63.22 156.57 63.22 156.57 38.95 156.57 38.95"/><path class="cls-1" d="M188.07,47.76c0-6.13,2.08-9.08,8.65-9.08h12.57c6,0,7.61,2.78,7.61,6v2.08H214V45.68c0-4.12-2.54-4.32-5.56-4.32h-11.4c-3.15,0-5.69.94-5.69,5.16v9.12c0,4.22,2.54,5.16,5.69,5.16h11.5c4.42,0,5.7-.94,5.7-4.22V55.07h3.08v1.64c0,4.4-1.41,6.77-8.21,6.77h-12.4c-6.57,0-8.65-2.94-8.65-9.08V47.76Z"/><polygon class="cls-1" points="235.43 41.63 223.16 41.63 223.16 38.95 250.98 38.95 250.98 41.63 238.71 41.63 238.71 63.22 235.43 63.22 235.43 41.63 235.43 41.63"/><polygon class="cls-1" points="258.04 38.95 261.33 38.95 261.33 63.22 258.04 63.22 258.04 38.95 258.04 38.95"/><path class="cls-1" d="M298.4,46.52c0-4.22-2.55-5.16-5.7-5.16H279.39c-3.15,0-5.7.94-5.7,5.16v9.12c0,4.22,2.55,5.16,5.7,5.16H292.7c3.15,0,5.7-.94,5.7-5.16V46.52Zm-28,1.24c0-6.13,2.08-9.08,8.64-9.08h14c6.57,0,8.65,3,8.65,9.08V54.4c0,6.14-2.08,9.08-8.65,9.08h-14c-6.56,0-8.64-2.94-8.64-9.08V47.76Z"/><polygon class="cls-1" points="310.45 38.95 315.35 38.95 337.57 60.27 337.57 38.95 340.86 38.95 340.86 63.22 335.96 63.22 313.74 41.9 313.74 63.22 310.45 63.22 310.45 38.95 310.45 38.95"/></svg>