<svg id="Слой_1" data-name="Слой 1" xmlns="http://www.w3.org/2000/svg" viewBox="0 0 440 48.88"><defs><style>.cls-1{fill:#000;}</style></defs><title>KarenMillen</title><polygon class="cls-1" points="29.54 3.35 23.3 3.35 5.57 23.76 5.51 23.76 5.51 3.35 0 3.35 0 46.19 5.51 46.19 5.51 25.83 5.57 25.83 23.16 46.19 30.28 46.19 11.21 24.29 29.54 3.35"/><path class="cls-1" d="M260.81,3.35,249.33,26.82c-1.88,3.75-3.9,7.86-5.37,11.49h-.14c-1.54-3.63-3.76-7.93-5.5-11.43L226.77,3.36h-3.49L219.7,46.2h4.92l1.74-20.75c.27-2.89.54-6.85.67-10.35h.14c1.55,3.43,3.43,8,5,11l11.68,22.73L255,26.15c1.55-3.09,3.7-7.89,5.11-11.18h.13c.13,3.36.4,7.25.68,10.48l1.74,20.75h5.24L264.3,3.36h-3.49Z"/><path class="cls-1" d="M33.6,46.18H39l4.7-11.54h17.4L65.9,46.18h5.57L52.53,0ZM59.21,30.29H45.59l4.69-11.82a57.38,57.38,0,0,0,2.08-6h.13c.61,2,1.35,4.32,2,6Z"/><path class="cls-1" d="M103.33,15.16c0-7.72-6.44-11.82-12.75-11.82H78.23V46.18h5.43V27H89.5l13.83,19.2h6.85L95.35,26.1a11.24,11.24,0,0,0,8-10.94M83.66,22.41V8.11h6c4.31,0,8.07,2.55,8.07,7.19s-3.77,7.11-8,7.11Z"/><polygon class="cls-1" points="123.41 27.06 137.71 27.06 137.71 22.29 123.41 22.29 123.41 8.12 140.6 8.12 140.6 3.35 117.9 3.35 117.9 46.19 143.01 46.19 143.01 41.43 123.41 41.43 123.41 27.06"/><rect class="cls-1" x="280.17" y="3.35" width="5.55" height="42.84"/><polygon class="cls-1" points="305.99 3.35 300.48 3.35 300.48 46.18 325.39 46.18 325.39 41.41 305.99 41.41 305.99 3.35"/><polygon class="cls-1" points="339.19 3.35 333.68 3.35 333.68 46.18 358.59 46.18 358.59 41.41 339.19 41.41 339.19 3.35"/><polygon class="cls-1" points="372.31 27.05 386.61 27.05 386.61 22.28 372.31 22.28 372.31 8.11 389.5 8.11 389.5 3.34 366.8 3.34 366.8 46.18 391.91 46.18 391.91 41.42 372.31 41.42 372.31 27.05"/><path class="cls-1" d="M434.5,3.33V24.85c0,3.35,0,7.11.13,10.66l-.13.07c-2.75-3.42-6.64-7.84-9.32-10.86L406.07,3.33h-3.82V46.11h5.49V23.58c0-3.56,0-7.38-.13-11.27l.13-.07c3,3.56,6.78,8,10.13,11.81L440,48.69V3.33Z"/><path class="cls-1" d="M184.23,3.33V24.85c0,3.35,0,7.11.13,10.66l-.13.07c-2.75-3.42-6.64-7.84-9.32-10.86L155.8,3.33H152V46.11h5.49V23.58c0-3.56,0-7.38-.13-11.27l.13-.07c2.95,3.56,6.78,8,10.13,11.81l22.13,24.64V3.33Z"/></svg>