<?xml version="1.0" encoding="utf-8"?>
<!-- Generator: Adobe Illustrator 23.0.1, SVG Export Plug-In . SVG Version: 6.00 Build 0)  -->
<svg version="1.1" id="Слой_1" xmlns="http://www.w3.org/2000/svg" xmlns:xlink="http://www.w3.org/1999/xlink" x="0px" y="0px"
	 viewBox="0 0 426.8 141" style="enable-background:new 0 0 426.8 141;" xml:space="preserve">
<style type="text/css">
	.st0{fill:#444444;}
</style>
<g>
	<g>
		<path class="st0" d="M341.2,113.8c-7.8,0-15.4,0-23.4,0c0,6.4,0,11.9,0,18.3c8.2,0,16.4,0,25.1,0c0,2.8,0,4.8,0,7.4
			c-11.1,0-22.2,0-33.8,0c0-19.4,0-38.8,0-58.4c11,0,21.8,0,33,0c0,2.4,0,4.6,0,7.6c-8.2,0-16.1,0-24.3,0c0,6.2,0,11.5,0,17.6
			c7.9,0,15.5,0,23.4,0C341.2,108.9,341.2,111,341.2,113.8z"/>
		<path class="st0" d="M121.7,106.1c0,3,0,4.9,0,7.6c-7.9,0-15.5,0-23.6,0c0,6.3,0,12,0,18.4c8.3,0,16.3,0,25,0
			c0.1,2.7,0.3,4.7,0.4,7.3c-11.5,0-22.5,0-33.9,0c0-19.4,0-38.6,0-58.3c11,0,21.9,0,33.1,0c0,2.3,0,4.4,0,7.3c-8.2,0-16.2,0-24.6,0
			c0,6.2,0,11.6,0,17.7C105.8,106.1,113.5,106.1,121.7,106.1z"/>
		<path class="st0" d="M25.6,140.3C17.2,120.8,8.8,101.4,0,81.1c3.2-0.2,5.5-0.3,8.4-0.5c5.8,13.4,11.6,26.6,17.3,39.8
			c0.4,0.1,0.8,0.2,1.3,0.3c5.8-13.3,11.5-26.5,17.3-39.8c2.7,0,5,0,8.4,0c-8.5,20.2-16.8,39.8-25.1,59.4
			C26.8,140.3,26.2,140.3,25.6,140.3z"/>
		<path class="st0" d="M245.7,141c-8.7-20.2-17.1-39.7-25.9-59.8c3.3,0,5.7,0,8.5,0c5.7,13,11.4,26.2,17.2,39.4c0.4,0,0.9,0,1.3,0
			c5.7-13.2,11.4-26.4,17.2-39.6c2.5,0,4.7,0,6.8,0C271.5,84.2,250.5,135.3,245.7,141z"/>
		<path class="st0" d="M426.8,81.1c0,2.6,0,4.6,0,7.5c-6.8,0-13.2,0-20.3,0c0,17.4,0,33.9,0,50.9c-3.1,0-5.5,0-8.7,0
			c0-16.9,0-33.6,0-51.1c-7.2,0-13.5,0-20.1,0c0-2.8,0-4.9,0-7.3C394.1,81.1,410.2,81.1,426.8,81.1z"/>
		<path class="st0" d="M162.6,139.5c0-19.7,0-38.8,0-58.3c2.6,0,5,0,8.1,0c0,16.8,0,33.5,0,51c9.3,0,17.8,0,26.8,0
			c0,2.8,0,4.9,0,7.3C185.8,139.5,174.5,139.5,162.6,139.5z"/>
	</g>
	<g>
		<path class="st0" d="M67.4,0.6c1.1-0.2,1.9-0.5,2.7-0.5c1.6-0.1,3.3,0,5,0c6.6,8,13,15.7,19.9,24.1c6.8-8.3,13.2-16,19.7-23.9
			c2.4,0,4.7,0,7.5,0c0,19.5,0,38.9,0,58.6c-2.5,0-4.7,0-7.7,0c0-14.7,0-29.2,0-43.8c-0.5-0.2-0.9-0.3-1.4-0.5
			c-5.9,7.2-11.8,14.4-18.2,22.3c-6.3-7.8-12-14.9-17.8-22.1c-0.4,0.1-0.8,0.2-1.2,0.4c0,14.3,0,28.7,0,43.5c-3.2,0-5.7,0-8.6,0
			C67.4,39.2,67.4,19.9,67.4,0.6z"/>
		<path class="st0" d="M217.2,0.2c2.4,0,4.2,0,6.6,0c12.9,14.5,25.9,29.3,39,44.1c0.4-0.1,0.7-0.2,1.1-0.4c0-14.3,0-28.7,0-43.5
			c2.9,0,5.1,0,7.8,0c0,19.3,0,38.5,0,58.3c-2.3,0.1-4.5,0.3-6.9,0.5c-13-14.8-25.9-29.5-38.8-44.2c-0.3,0.1-0.6,0.2-0.9,0.3
			c0,14.2,0,28.5,0,43.3c-2.8,0-5.1,0-7.8,0C217.2,39.1,217.2,19.9,217.2,0.2z"/>
		<path class="st0" d="M339.1,58.9c-3.2,0-5.3,0-8.3,0c0-16.9,0-33.5,0-51c-7.2,0-13.6,0-20.5,0c-0.1-2.8-0.3-4.9-0.4-7.4
			c16.6,0,32.8,0,49.4,0c0,2.2,0,4.2,0,7.2c-6.5,0-13,0-20.3,0C339.1,25.2,339.1,41.7,339.1,58.9z"/>
		<path class="st0" d="M165.9,58.7c0-19.6,0-38.7,0-58.3c2.6,0,5,0,7.7,0c0,19.5,0,38.7,0,58.3C171.1,58.7,168.8,58.7,165.9,58.7z"
			/>
	</g>
</g>
</svg>
